<?xml version="1.0" standalone="no"?><!DOCTYPE svg PUBLIC "-//W3C//DTD SVG 1.1//EN" "http://www.w3.org/Graphics/SVG/1.1/DTD/svg11.dtd"><svg t="1575380775342" class="icon" viewBox="0 0 1024 1024" version="1.1" xmlns="http://www.w3.org/2000/svg" p-id="2161" xmlns:xlink="http://www.w3.org/1999/xlink" width="200" height="200"><defs><style type="text/css"></style></defs><path d="M349.198717 915.506355h474.598884c29.920893 0 54.246823-24.08267 54.246822-53.881934V794.241596c22.501485 0 40.624302-18.122817 40.624303-40.502672v-323.534862c0-29.799264-24.325929-53.881934-54.246823-53.881933H651.813279c1.581185-48.773489-1.216296-144.73928-41.597339-201.418696-26.758522-37.461931-74.558974-62.882528-74.558974-62.882528-27.974819-10.46015-68.84238 5.230075-68.84238 35.029338 0 0 13.987409 103.50683-23.352892 166.875876-16.298373 27.4883-36.245635 47.922081-53.517045 62.39601H159.456468c-29.920893 0-54.246823 24.08267-54.246823 53.881933v431.420359c0 29.920893 24.2043 53.881934 54.246823 53.881934h189.742249z m0-485.302293v431.420359H206.405511c-26.028745 0-46.949044-19.217484-46.949043-43.178525V473.260957c0-23.839411 21.041929-43.056895 46.949043-43.056895h142.793206z m366.105238 107.763868c0 14.838817 12.162965 27.001782 27.123412 27.001781h121.994536V632.474166H742.427367c-14.960447 0-27.123411 11.919705-27.123412 27.001781 0 14.838817 12.162965 27.001782 27.123412 27.001782h121.994536v54.003563H742.427367c-14.960447 0-27.123411 11.919705-27.123412 26.880152 0 14.838817 12.162965 27.001782 27.123412 27.001782h81.370234V818.567526c0 24.08267-21.163559 43.300154-47.070674 43.300154H403.44554V429.960803c6.93289-4.378667 69.815418-62.639268 76.261789-72.248011 39.772895-59.841786 40.624302-160.916023 40.624302-160.916023 0-29.799264-3.52726-29.920893 24.569189-19.460743 0 0 53.152156 81.735123 48.04371 198.986103-0.486519 10.095261-0.12163 27.4883 4.865186 37.097042 6.446371 12.162965 13.014372 16.784891 42.935266 16.784891h176.484618c26.028745 0 46.949044 19.339114 46.949044 43.056895v37.826821H742.305737c-14.838817-0.12163-27.001782 12.162965-27.001782 26.880152zM227.204181 753.617294c0 14.960447 12.162965 27.001782 27.123411 27.001782s27.123411-11.919705 27.123412-27.001782c0-14.838817-12.041335-27.001782-27.123412-27.001781-14.960447 0.12163-27.123411 12.162965-27.123411 27.001781z m0 0" p-id="2162" fill="white"></path></svg>