<?xml version="1.0" standalone="no"?><!DOCTYPE svg PUBLIC "-//W3C//DTD SVG 1.1//EN" "http://www.w3.org/Graphics/SVG/1.1/DTD/svg11.dtd"><svg t="1575380850393" class="icon" viewBox="0 0 1024 1024" version="1.1" xmlns="http://www.w3.org/2000/svg" p-id="4761" xmlns:xlink="http://www.w3.org/1999/xlink" width="200" height="200"><defs><style type="text/css"></style></defs><path d="M796.444444 492.231111l129.848889-62.72A28.444444 28.444444 0 0 1 967.111111 455.111111V769.422222a28.444444 28.444444 0 0 1-40.817778 25.6L796.444444 732.273778V853.333333a56.888889 56.888889 0 0 1-56.888888 56.888889H113.777778a56.888889 56.888889 0 0 1-56.888889-56.888889V398.222222a56.888889 56.888889 0 0 1 56.888889-56.888889h625.777778a56.888889 56.888889 0 0 1 56.888888 56.888889v94.008889z m0 176.440889l111.786667 53.987556v-220.814223L796.444444 555.804444v112.839112zM113.777778 398.222222v455.111111h625.777778V398.222222H113.777778z m398.222222-85.333333a113.777778 113.777778 0 1 1 0-227.555556 113.777778 113.777778 0 0 1 0 227.555556z m0-56.888889a56.888889 56.888889 0 1 0 0-113.777778 56.888889 56.888889 0 0 0 0 113.777778z m-227.555556 56.888889a85.333333 85.333333 0 1 1 0-170.666667 85.333333 85.333333 0 0 1 0 170.666667z m0-56.888889a28.444444 28.444444 0 1 0 0-56.888889 28.444444 28.444444 0 0 0 0 56.888889z m56.888889 475.676444v-227.555555a28.444444 28.444444 0 0 1 42.552889-24.689778l199.111111 113.777778a28.444444 28.444444 0 0 1 0 49.379555l-199.111111 113.777778A28.444444 28.444444 0 0 1 341.333333 731.676444z m56.888889-178.545777V682.666667l113.322667-64.768L398.222222 553.130667z" p-id="4762" fill="white"></path></svg>