<?xml version="1.0" standalone="no"?><!DOCTYPE svg PUBLIC "-//W3C//DTD SVG 1.1//EN" "http://www.w3.org/Graphics/SVG/1.1/DTD/svg11.dtd"><svg t="1574843690976" class="icon" viewBox="0 0 1024 1024" version="1.1" xmlns="http://www.w3.org/2000/svg" p-id="11895" xmlns:xlink="http://www.w3.org/1999/xlink" width="200" height="200"><defs><style type="text/css"></style></defs><path d="M513.654686 208.139457c-149.303444 0-298.606889 0.023536-447.911356-0.017396-34.409694-0.00921-60.70764-27.260877-59.732429-61.651129 0.87902-31.010271 26.731828-56.561204 57.770751-57.094346 1.099031-0.01842 2.198062-0.013303 3.297093-0.013303 297.874201 0 595.748403-0.00307 893.622604 0.004093 28.387537 0.001023 51.560306 16.9613 58.860573 42.996257 10.787694 38.471197-17.377786 75.740008-57.447387 75.754335C812.627918 208.17118 663.141302 208.139457 513.654686 208.139457z" p-id="11896" fill="white"></path><path d="M514.542916 453.232548c148.755975 0 297.510928-0.014326 446.266903 0.011256 29.226648 0.005117 52.439326 17.781992 59.295478 45.218878 9.235338 36.957727-18.394952 72.967872-56.43943 73.553203-1.648546 0.025583-3.297093 0.030699-4.945639 0.030699-296.595069 0.001023-593.19116-0.033769-889.786229 0.064468-25.412786 0.008186-44.865837-9.958816-56.509015-32.730449-20.361747-39.821961 8.526187-86.082564 53.653991-86.111217C215.566614 453.173197 365.054253 453.232548 514.542916 453.232548z" p-id="11897" fill="white"></path><path d="M514.490727 817.09465c148.573827 0 297.146631-0.013303 445.720458 0.01228 27.604708 0.005117 49.586348 14.948457 58.205657 39.36045 13.800307 39.08518-14.70184 79.407538-56.345286 79.423911-150.588717 0.061398-301.177434 0.024559-451.766151 0.024559-148.024312 0-296.048623 0.017396-444.071911-0.01228-34.655288-0.007163-60.948117-26.808576-60.229756-61.216223 0.653893-31.343869 26.417673-57.33687 57.820893-57.478086 60.087517-0.270153 120.17708-0.10847 180.266643-0.112564C334.224084 817.089533 424.357917 817.09465 514.490727 817.09465z" p-id="11898" fill="white"></path></svg>