<?xml version="1.0" standalone="no"?><!DOCTYPE svg PUBLIC "-//W3C//DTD SVG 1.1//EN" "http://www.w3.org/Graphics/SVG/1.1/DTD/svg11.dtd"><svg t="1574843419504" class="icon" viewBox="0 0 1024 1024" version="1.1" xmlns="http://www.w3.org/2000/svg" p-id="10231" xmlns:xlink="http://www.w3.org/1999/xlink" width="200" height="200"><defs><style type="text/css"></style></defs><path d="M875.507 936.258H124.998c-19.418 0-38.836-9.709-51.458-24.272l-0.97-0.97c-12.623-17.478-16.506-37.867-11.652-56.313 39.808-201.95 206.803-355.351 405.838-371.857 4.854-0.97 8.738-1.941 12.622-1.941h36.895l-4.856 48.545H492c-7.767 0-11.651 0-17.476 1.94h-2.912C291.993 544.015 141.504 681.884 106.55 865.384c-0.97 4.854-0.97 11.651 3.883 16.506l0.97 1.94c2.914 3.885 7.769 5.827 13.594 5.827h751.479c5.825 0 10.68-1.941 13.592-5.826 4.855-5.825 5.826-11.65 4.855-18.447-22.33-120.393-95.149-222.336-198.064-280.591l-0.97-0.97c-7.768-4.856-17.477-9.71-26.215-14.565-2.913-1.941-5.826-2.912-8.738-4.853l-13.593-5.826 19.418-43.691 13.592 5.825c9.709 3.884 19.419 9.709 28.157 13.592l11.65 5.827c116.51 66.02 197.093 180.587 223.308 314.573 4.855 19.417 0 39.807-14.563 57.283-13.593 15.534-33.982 24.272-53.4 24.272z" p-id="10232" fill="#707070"></path><path d="M505.593 514.886c-122.334 0-223.308-100.974-223.308-223.308S383.259 68.271 505.593 68.271s223.308 100.974 223.308 223.307-101.945 223.309-223.307 223.309z m0-411.663c-104.858 0-188.355 84.468-188.355 188.355s84.47 188.355 188.355 188.355 188.355-84.47 188.355-188.355-84.47-188.355-188.355-188.355z" p-id="10233" fill="#707070"></path><path d="M505.593 519.741c-126.218 0-228.162-101.945-228.162-228.162S379.375 63.416 505.593 63.416s228.162 101.946 228.162 228.163S630.84 519.74 505.593 519.74z m0-446.615c-120.391 0-218.453 98.06-218.453 218.453s98.062 218.453 218.453 218.453 218.453-98.062 218.453-218.453-98.06-218.453-218.453-218.453z m0 411.663c-106.799 0-193.21-86.41-193.21-193.21s86.41-193.211 193.21-193.211c106.8 0 193.21 86.41 193.21 193.211s-87.381 193.21-193.21 193.21z m0-376.71c-100.974 0-183.501 82.527-183.501 183.501s82.527 183.501 183.501 183.501 183.501-82.528 183.501-183.501c0-100.974-82.527-183.501-183.501-183.501zM207.525 775.088c-1.941 0-4.854-0.97-6.797-1.941-6.796-3.884-9.709-12.622-5.825-19.419 85.44-166.025 270.882-197.093 278.65-198.064 7.768-0.97 15.534 3.884 16.506 11.651 0.97 7.768-3.884 15.534-11.651 16.506-1.942 0-178.646 30.097-257.29 182.529-2.912 5.826-7.768 8.738-13.593 8.738z m-33.011 84.47c-7.767 0-14.563-6.798-14.563-14.565 0-28.156 18.447-58.254 21.36-61.167 3.882-6.796 13.592-8.738 20.389-4.853 6.796 3.882 8.738 13.591 4.853 20.388-4.853 6.796-16.504 29.128-16.504 45.632-0.97 7.768-6.797 14.564-15.535 14.564z" p-id="10234" fill="#707070"></path></svg>