<?xml version="1.0" standalone="no"?><!DOCTYPE svg PUBLIC "-//W3C//DTD SVG 1.1//EN" "http://www.w3.org/Graphics/SVG/1.1/DTD/svg11.dtd"><svg t="1575889950846" class="icon" viewBox="0 0 1024 1024" version="1.1" xmlns="http://www.w3.org/2000/svg" p-id="3170" xmlns:xlink="http://www.w3.org/1999/xlink" width="64" height="64"><defs><style type="text/css"></style></defs><path d="M406.318 854.998c0 57.562 46.646 104.22799999 104.228 104.228 57.56300001 0 104.209-46.666 104.209-104.228s-46.646-104.22799999-104.209-104.22800001c-57.58199999 0-104.228 46.667-104.228 104.22800001zM406.318 522.569c0 57.562 46.646 104.22799999 104.228 104.228 57.56300001 0 104.209-46.667 104.209-104.228s-46.646-104.22799999-104.209-104.228c-57.58199999 0-104.228 46.666-104.228 104.228zM406.318 169.362c0 57.56300001 46.646 104.23 104.228 104.23 57.56300001 0 104.209-46.667 104.209-104.23s-46.646-104.22799999-104.209-104.228c-57.582 0.001-104.228 46.666-104.228 104.228z" p-id="3171" fill="#bfbfbf"></path></svg>