<?xml version="1.0" standalone="no"?><!DOCTYPE svg PUBLIC "-//W3C//DTD SVG 1.1//EN" "http://www.w3.org/Graphics/SVG/1.1/DTD/svg11.dtd"><svg t="1574843285765" class="icon" viewBox="0 0 1024 1024" version="1.1" xmlns="http://www.w3.org/2000/svg" p-id="6179" xmlns:xlink="http://www.w3.org/1999/xlink" width="200" height="200"><defs><style type="text/css"></style></defs><path d="M958.72 97.664a41.92 41.92 0 0 0-15.296-32.384 41.344 41.344 0 0 0-34.56-8.64L384.96 163.712a41.728 41.728 0 0 0-33.28 40.96l-0.384 477.568c-29.12-16.704-63.936-25.92-101.376-25.92h-0.128c-47.744 0-92.992 15.04-127.424 43.52-36.8 30.4-57.024 67.584-57.088 112 0 88.32 82.688 156.352 184.448 156.352h0.128c47.744 0 90.432-11.968 124.864-40.448 36.8-30.464 54.528-69.12 54.528-113.536v1.088l2.816-407.168 442.048-89.856 0.512 247.488c-29.056-16.64-63.104-23.808-100.352-23.808h-0.192c-47.744 0-92.992 13.12-127.36 41.6-36.8 30.464-57.088 68.544-57.152 112.96 0 88.32 82.688 157.312 184.448 157.312h0.128c97.024 0 176.96-63.552 184.192-146.304 0-0.96 0.256-5.504 0.064-16.96l0.32-592.896zM324.48 863.36c-19.584 16.256-46.08 21.632-74.624 21.632h-0.064c-54.976 0-101.376-31.68-101.376-73.216 0-18.944 9.6-35.072 26.816-49.344 19.52-16.192 46.016-22.976 74.56-22.976h0.064c54.976 0 101.376 33.024 101.376 74.624 0 18.944-9.536 35.008-26.752 49.28z m110.208-529.856l0.064-94.656 440.768-90.048v94.848L434.624 333.504z m339.456 437.12c-55.04 0-101.44-33.536-101.376-75.136 0-18.944 9.472-34.112 26.752-48.384 19.584-16.192 46.08-22.016 74.56-22.016h0.128c52.352 0 102.016 27.328 102.016 66.304v11.776c-10.368 38.912-49.728 67.456-102.08 67.456z" p-id="6180" fill="#707070"></path></svg>