<?xml version="1.0" standalone="no"?><!DOCTYPE svg PUBLIC "-//W3C//DTD SVG 1.1//EN" "http://www.w3.org/Graphics/SVG/1.1/DTD/svg11.dtd"><svg t="1575889894123" class="icon" viewBox="0 0 1117 1024" version="1.1" xmlns="http://www.w3.org/2000/svg" p-id="2099" xmlns:xlink="http://www.w3.org/1999/xlink" width="69.8125" height="64"><defs><style type="text/css"></style></defs><path d="M279.272727 0h558.545455a279.272727 279.272727 0 0 1 279.272727 279.272727v465.454546a279.272727 279.272727 0 0 1-279.272727 279.272727H279.272727a279.272727 279.272727 0 0 1-279.272727-279.272727V279.272727a279.272727 279.272727 0 0 1 279.272727-279.272727z m0 93.090909a186.181818 186.181818 0 0 0-186.181818 186.181818v465.454546a186.181818 186.181818 0 0 0 186.181818 186.181818h558.545455a186.181818 186.181818 0 0 0 186.181818-186.181818V279.272727a186.181818 186.181818 0 0 0-186.181818-186.181818H279.272727z" fill="#bfbfbf" p-id="2100"></path><path d="M780.288 529.780364L465.454545 372.363636v314.833455l314.833455-157.416727z m41.611636 83.269818l-314.833454 157.416727A93.090909 93.090909 0 0 1 372.363636 687.150545V372.363636a93.090909 93.090909 0 0 1 134.702546-83.269818l314.833454 157.416727a93.090909 93.090909 0 0 1 0 166.539637z" fill="#bfbfbf" p-id="2101"></path></svg>