<?xml version="1.0" standalone="no"?><!DOCTYPE svg PUBLIC "-//W3C//DTD SVG 1.1//EN" "http://www.w3.org/Graphics/SVG/1.1/DTD/svg11.dtd"><svg t="1575381012069" class="icon" viewBox="0 0 1024 1024" version="1.1" xmlns="http://www.w3.org/2000/svg" p-id="5631" xmlns:xlink="http://www.w3.org/1999/xlink" width="200" height="200"><defs><style type="text/css"></style></defs><path d="M315.857699 401.990759c-34.027912-20.474422-66.325592-39.795355-98.911643-59.40466-34.893029-20.762794-70.074429-41.525588-104.679086-62.865126-3.748838-2.306977-7.209303-8.939536-7.209303-13.553491-0.576744-71.51629-0.576744-143.03258-0.288373-214.837242C104.769294 24.800004 123.513483 6.055815 153.504186 2.018605 161.578605 0.865116 169.653025 0.865116 178.015817 0.865116c220.893057 0 442.074486-0.288372 662.967543 0.288373 14.706979 0 29.990702 1.730233 43.832565 5.767442 20.762794 6.055815 32.297679 23.358143 32.586052 44.409309 0.288372 71.51629 0 143.03258 0.288372 214.837242 0 9.227908-4.613954 12.400002-10.958141 16.14884-69.209313 41.237216-138.130254 82.762803-208.493055 124.865135 104.967458 81.609315 155.720954 187.441889 140.725602 320.093073-10.093025 89.683735-52.195357 163.795374-122.558158 220.893057-144.474441 117.36746-352.390751 95.162805-470.9117-43.544193C123.513483 761.590814 136.201857 528.874499 315.857699 401.990759z m188.595377-15.283723C338.92747 386.418664 205.987915 518.781475 205.122798 684.307081c-0.865116 164.372118 132.074439 298.465162 296.158185 299.330278 166.390723 0.576744 300.772139-131.786067 301.060511-297.311673 0.288372-164.948862-133.227927-299.041906-297.888418-299.61865z m151.395372-344.604704H362.285613v333.934935c2.306977-0.288372 3.748838-0.288372 4.902326-0.865117l9.516281-3.460465c86.223269-33.451168 172.158166-33.162796 257.80469 1.730232 6.344187 2.595349 13.265118 3.172094 21.339538 5.190699V42.102332zM697.374036 359.888427c3.748838-1.730233 6.344187-2.306977 8.651164-3.748838 54.790706-32.874424 109.581412-65.460475 163.795374-98.623271 4.325582-2.595349 7.786048-10.669769 7.786048-16.148839 0.576744-59.116288 0.288372-118.232576 0.288372-177.060492 0-19.897677-0.865116-21.051166-20.474422-23.069771-3.748838-0.288372-7.786048-0.576744-11.534885-0.576745h-135.246533c-4.325582 0-8.362792 0.576744-13.265118 0.865117v318.362839z m-376.902383-1.730233V40.660471H192.722796c-11.534885 0-23.069771 0.576744-34.604656 1.441861-9.516281 0.865116-13.55349 5.767443-13.553491 16.14884 0.288372 61.423265 0 122.84653 0.576745 184.558167 0 5.190698 4.325582 12.688374 8.939536 15.572096 33.451168 20.762794 67.190708 40.660471 100.930248 60.846521 21.339538 12.688374 42.679076 25.376748 65.460475 38.930238z" fill="white" p-id="5632"></path><path d="M366.899567 886.455949c6.632559-38.641866 12.688374-75.5535 19.320933-112.176761 6.920931-39.218611 6.920931-38.641866-20.762794-66.613964-26.241864-26.530237-51.33024-54.502334-76.706988-81.320942 12.400002-2.018605 28.548842-4.325582 44.697681-6.920932 30.279074-4.613954 60.846521-8.362792 91.125595-13.841862 5.767443-1.153489 12.688374-6.344187 15.283724-11.534886 19.320933-37.488378 37.77675-75.5535 56.232566-113.33025 2.018605-4.325582 4.325582-8.362792 7.497676-14.706979 17.5907 35.469773 34.316284 69.209313 50.465124 102.948853 17.302328 36.046517 17.302328 36.046517 57.386055 41.525588 36.623261 4.902326 72.958151 10.381397 113.041878 16.14884-16.14884 15.860468-30.279074 30.279074-44.697681 44.409309-19.897677 19.320933-40.372099 38.353494-59.693033 58.539544-3.460466 3.460466-4.613954 11.246513-3.748837 16.437212 6.920931 44.120937 14.706979 87.953502 22.204654 131.786066 0.288372 2.306977 0.576744 4.325582 1.153489 8.939536-17.879072-9.227908-34.027912-17.302328-49.88838-25.66512-25.376748-13.265118-51.041868-26.530237-76.130244-40.372099-7.786048-4.325582-13.265118-4.03721-21.051166 0-38.065122 20.474422-76.130244 40.372099-114.483739 60.269777-2.883721 1.730233-6.344187 3.172094-11.246513 5.47907z m136.688393-330.186097c-13.265118 26.818609-25.088376 50.753496-36.623261 74.688384-3.460466 6.920931-7.209303 10.669769-15.860468 11.823257-26.818609 3.172094-53.348845 7.786048-79.013965 11.823258 18.167445 19.320933 35.469773 38.641866 53.925589 56.520939 7.497676 7.209303 9.227908 14.130235 7.497676 23.934887-4.902326 25.376748-8.939536 50.753496-13.841863 79.013966 21.051166-10.958141 40.660471-19.320933 57.9628-30.855819 19.032561-12.688374 35.181401-10.669769 53.637217 0.865117 17.013956 10.958141 35.469773 19.320933 55.944195 29.990702-4.613954-28.548842-8.07442-53.637217-13.265119-78.437221-2.306977-10.958141 0.288372-17.5907 7.786048-25.088376 18.167445-18.167445 35.469773-37.200006 53.637218-56.232567-25.376748-3.748838-51.33024-8.362792-77.283733-11.246513-10.381397-1.153489-14.706979-5.767443-18.744189-14.418607-10.958141-23.069771-22.781399-46.139542-35.758145-72.381407z" fill="white" p-id="5633"></path></svg>