<?xml version="1.0" standalone="no"?><!DOCTYPE svg PUBLIC "-//W3C//DTD SVG 1.1//EN" "http://www.w3.org/Graphics/SVG/1.1/DTD/svg11.dtd"><svg t="1574843242179" class="icon" viewBox="0 0 1024 1024" version="1.1" xmlns="http://www.w3.org/2000/svg" p-id="5325" xmlns:xlink="http://www.w3.org/1999/xlink" width="200" height="200"><defs><style type="text/css"></style></defs><path d="M923.927 1024c30.382 0 54.896-25.824 54.896-57.529V201.617c0-31.853-24.646-57.559-54.896-57.559-30.265 0-54.912 25.824-54.912 57.559v764.854c0 31.823 24.647 57.529 54.912 57.529z m-823.824 0c30.368 0 54.882-25.824 54.882-57.529V562.029c0-31.853-24.647-57.529-54.882-57.529-30.397 0-54.927 25.823-54.927 57.529V966.47c0 31.824 24.53 57.53 54.927 57.53z m274.647 0c30.382 0 54.912-25.824 54.912-57.529V57.559C429.662 25.735 405 0 374.75 0c-30.397 0-54.912 25.853-54.912 57.559v908.912c-0.117 31.823 24.515 57.529 54.912 57.529z m274.632 0c30.397 0 54.912-25.824 54.912-57.529V393.382c0-31.853-24.647-57.529-54.912-57.529-30.25 0-54.897 25.794-54.897 57.529V966.47C594.353 998.294 619 1024 649.382 1024z m0 0" fill="#707070" p-id="5326"></path></svg>