<?xml version="1.0" standalone="no"?><!DOCTYPE svg PUBLIC "-//W3C//DTD SVG 1.1//EN" "http://www.w3.org/Graphics/SVG/1.1/DTD/svg11.dtd"><svg t="1575602526095" class="icon" viewBox="0 0 1024 1024" version="1.1" xmlns="http://www.w3.org/2000/svg" p-id="1862" width="128" height="128" xmlns:xlink="http://www.w3.org/1999/xlink"><defs><style type="text/css"></style></defs><path d="M511.36712 731.609394A226.887515 226.887515 0 0 1 284.796044 506.304079V253.15204a226.254635 226.254635 0 0 1 385.423981-163.283066l-33.226205 33.859085a177.522868 177.522868 0 0 0-126.57602-51.896168 179.421508 179.421508 0 0 0-178.155748 179.105068v253.15204a179.105068 179.105068 0 0 0 358.210136 0V411.372064h47.466007v94.932015a226.887515 226.887515 0 0 1-226.571075 225.305315z" p-id="1863" fill="#707070"></path><path d="M511.36712 908.815822A355.045735 355.045735 0 0 1 156.637824 554.086527V443.016069h47.466008v111.070458a307.579728 307.579728 0 0 0 614.843016 0V443.016069h47.466007v111.070458a355.362176 355.362176 0 0 1-355.045735 354.729295z" p-id="1864" fill="#707070"></path><path d="M487.634116 885.082818h47.466008v138.917182h-47.466008zM712.622991 43.668727v129.74042a109.488257 109.488257 0 0 0-63.28801-20.568603 112.019778 112.019778 0 1 0 111.703338 112.019777V153.156984l106.323857-31.644005V0z m-63.28801 284.796044a63.28801 63.28801 0 1 1 63.28801-63.28801 63.28801 63.28801 0 0 1-64.23733 64.23733z m170.561187-242.393078l-58.857849 16.771323v-23.416564L818.946848 63.28801z" p-id="1865" fill="#707070"></path></svg>